<?xml version="1.0" standalone="no"?>
<!DOCTYPE svg PUBLIC "-//W3C//DTD SVG 20010904//EN"
 "http://www.w3.org/TR/2001/REC-SVG-20010904/DTD/svg10.dtd">
<svg version="1.0" xmlns="http://www.w3.org/2000/svg"
 width="317.000000pt" height="317.000000pt" viewBox="0 0 317.000000 317.000000"
 preserveAspectRatio="xMidYMid meet">
<metadata>
Created by potrace 1.11, written by Peter Selinger 2001-2013
</metadata>
<g transform="translate(0.000000,317.000000) scale(0.100000,-0.100000)"
fill="#000000" stroke="none">
<path d="M934 3154 c-20 -10 -57 -51 -98 -110 -37 -51 -113 -140 -171 -197
l-104 -104 -63 -6 c-35 -4 -117 -22 -183 -42 -89 -27 -134 -35 -176 -33 l-56
3 64 -155 c36 -85 76 -184 90 -220 15 -36 30 -71 36 -77 14 -19 92 -16 170 6
l67 18 18 -41 c10 -22 32 -74 47 -115 22 -56 37 -79 61 -93 l31 -18 -9 -67
c-5 -38 -20 -100 -33 -139 -25 -74 -116 -260 -154 -313 -40 -55 -54 -111 -54
-209 0 -85 -1 -92 -18 -87 -10 3 -32 -1 -48 -10 -55 -28 -67 -85 -17 -85 45 0
83 -46 153 -188 89 -182 166 -294 261 -383 141 -133 244 -179 456 -203 136
-16 213 -41 268 -86 37 -30 98 -137 98 -172 0 -10 5 -18 10 -18 6 0 10 9 10
19 0 29 34 102 65 139 30 36 96 78 147 93 18 5 89 16 156 25 145 17 221 40
314 95 152 89 262 222 387 468 84 164 121 211 166 211 33 0 39 14 21 49 -16
30 -66 54 -91 45 -13 -5 -15 9 -15 89 0 107 -15 163 -60 219 -17 20 -30 40
-30 45 0 4 -25 57 -55 118 -52 104 -87 215 -98 310 -4 36 -2 41 26 55 23 12
37 32 62 95 18 44 39 96 48 116 l15 37 69 -19 c37 -11 90 -18 118 -17 l50 3
95 230 96 231 -56 -4 c-42 -2 -83 5 -175 33 -66 19 -149 38 -184 42 l-64 6
-102 101 c-56 56 -126 137 -157 181 -72 102 -106 134 -151 142 -31 5 -40 1
-67 -25 -39 -39 -39 -74 1 -137 29 -46 30 -50 13 -62 -30 -22 -118 -51 -211
-70 -127 -26 -559 -26 -686 0 -94 19 -181 48 -212 71 -18 13 -17 15 14 62 39
59 37 105 -4 142 -30 26 -58 28 -101 6z m90 -36 c34 -49 1 -94 -35 -47 -16 21
-18 22 -24 6 -4 -9 -11 -17 -16 -17 -12 0 -11 22 1 54 12 33 53 35 74 4z
m1174 9 c16 -18 26 -67 14 -67 -5 0 -13 8 -17 17 -6 16 -8 15 -24 -6 -22 -29
-51 -23 -51 10 0 45 53 76 78 46z m48 -132 c-14 -71 -103 -142 -226 -179 -213
-65 -708 -60 -910 8 -112 38 -170 89 -195 170 -17 57 -18 66 -6 66 5 0 12 -15
15 -33 7 -39 63 -96 123 -126 169 -85 647 -107 928 -44 161 36 261 110 266
195 l2 23 4 -24 c3 -13 2 -38 -1 -56z m-1254 31 c15 -11 15 -16 5 -30 -12 -16
-14 -16 -31 3 -10 11 -15 25 -11 30 8 14 16 13 37 -3z m1208 -5 c0 -29 -24
-45 -40 -26 -11 13 -10 18 6 30 26 19 34 19 34 -4z m-1720 -342 c-19 -17 -58
-44 -87 -60 -77 -44 -104 -120 -68 -189 17 -32 50 -45 93 -37 29 6 29 5 79
-119 7 -19 -171 -61 -194 -46 -7 4 -47 91 -89 192 -41 102 -78 191 -81 198 -3
8 4 12 23 12 16 0 92 18 169 39 77 22 151 40 165 40 24 0 24 -1 -10 -30z
m2347 -9 c76 -22 150 -40 166 -40 15 0 27 -5 27 -12 0 -20 -152 -383 -164
-390 -6 -4 -27 -5 -46 -2 -45 7 -150 36 -150 40 0 2 12 33 27 68 25 61 28 65
54 59 48 -9 79 5 95 42 33 79 9 130 -94 198 -135 90 -120 96 85 37z m-180
-105 c-20 -20 -44 -57 -54 -81 -16 -40 -43 -60 -43 -33 0 27 57 113 89 135 47
32 51 23 8 -21z m-2109 6 c33 -33 74 -110 66 -123 -10 -17 -23 -7 -34 26 -6
19 -29 55 -51 80 -46 52 -30 65 19 17z m-94 11 c3 -5 -8 -22 -24 -37 -36 -34
-36 -39 -9 -66 18 -18 19 -23 6 -42 -19 -30 -33 -31 -56 -8 -34 34 -20 138 21
154 21 9 56 8 62 -1z m2350 -23 c33 -38 35 -95 6 -127 -25 -26 -33 -27 -54 -6
-21 21 -20 33 6 61 l22 23 -32 33 c-18 18 -29 36 -26 40 17 16 54 5 78 -24z
m-2292 -23 c16 -23 16 -24 -12 -51 -17 -16 -31 -27 -32 -24 -30 47 -30 51 -7
75 27 29 30 29 51 0z m1348 14 c165 -14 339 -45 545 -96 99 -24 203 -44 232
-44 29 0 53 -4 53 -9 0 -14 -150 -375 -160 -385 -17 -17 -139 -9 -275 18 -279
55 -384 68 -610 73 -252 6 -368 -5 -673 -63 -191 -37 -304 -46 -323 -27 -6 6
-45 95 -88 199 l-78 189 71 7 c39 3 150 27 246 51 184 48 321 72 480 86 137
12 447 12 580 1z m859 -14 c23 -24 23 -28 -7 -75 -1 -3 -15 8 -31 24 -28 26
-29 29 -14 51 19 30 24 30 52 0z m-1066 -776 c71 -120 97 -186 97 -243 -1 -23
-25 -116 -55 -207 l-53 -165 -51 -3 c-36 -2 -52 1 -55 10 -2 7 -25 78 -51 158
-55 170 -62 218 -42 282 14 44 136 267 147 267 3 1 31 -44 63 -99z m-404 -269
c88 -46 205 -215 247 -357 l15 -54 77 0 77 0 28 82 c53 153 153 290 242 332
81 39 187 0 235 -87 33 -58 33 -159 0 -236 l-24 -54 -15 24 c-37 57 -85 99
-122 109 -83 23 -158 -18 -205 -111 -29 -59 -30 -62 -2 -74 13 -6 24 -18 26
-28 5 -26 -26 -57 -56 -57 -24 0 -25 -2 -19 -50 9 -72 21 -90 63 -90 27 0 42
7 62 30 15 16 30 30 33 30 14 0 20 -98 10 -138 -24 -86 -116 -120 -180 -67
-39 33 -70 117 -78 211 l-6 74 -67 0 -67 0 -6 -68 c-15 -153 -67 -242 -141
-242 -86 0 -135 69 -123 171 4 29 9 54 11 57 3 2 19 -9 35 -27 32 -34 79 -42
101 -16 16 19 31 85 24 108 -3 9 -13 17 -23 17 -10 0 -26 9 -36 20 -15 17 -16
24 -7 45 6 14 19 25 27 25 20 0 13 27 -21 86 -47 82 -114 115 -192 95 -41 -12
-95 -58 -118 -103 -8 -16 -19 -26 -24 -23 -21 13 -53 146 -47 195 17 146 149
230 266 171z m-585 -12 c36 -28 33 -45 -14 -69 -64 -33 -92 -90 -104 -215 -9
-88 4 -100 52 -47 50 54 83 59 47 7 -41 -61 -46 -226 -10 -312 16 -39 38 -40
44 -2 4 33 36 75 62 82 16 4 19 2 14 -11 -34 -81 -26 -154 29 -268 45 -94 101
-154 183 -197 89 -46 153 -64 293 -82 63 -9 131 -20 150 -25 56 -15 123 -63
150 -108 14 -23 27 -42 30 -42 3 0 15 18 28 41 25 44 95 94 152 109 19 5 87
16 150 25 263 34 394 110 473 276 53 110 63 198 32 273 -8 17 -6 17 22 2 27
-13 38 -31 57 -89 9 -28 29 -15 44 27 33 99 23 257 -19 310 -16 20 -17 26 -6
26 20 0 65 -37 72 -60 8 -25 32 -26 37 -2 2 9 0 52 -3 94 -9 99 -38 154 -96
182 -50 24 -53 48 -11 79 20 15 35 18 62 13 106 -20 160 -161 133 -344 l-8
-52 35 17 c29 13 40 14 61 5 33 -15 32 -30 -2 -43 -49 -18 -74 -51 -143 -189
-134 -267 -258 -415 -418 -498 -91 -48 -157 -67 -262 -76 -199 -18 -312 -71
-365 -170 -11 -20 -22 -36 -25 -36 -3 0 -17 20 -32 45 -54 88 -158 139 -321
156 -122 12 -168 22 -239 50 -125 49 -272 178 -360 314 -25 39 -74 126 -108
195 -74 149 -101 187 -146 206 -40 17 -43 30 -9 46 21 9 32 8 61 -6 l36 -17
-6 24 c-39 155 6 323 98 363 44 19 69 17 100 -7z m962 -624 c6 -33 18 -86 27
-117 11 -41 13 -67 7 -89 -10 -33 -58 -109 -69 -109 -3 0 -19 19 -35 41 -38
54 -43 106 -17 199 12 41 21 86 21 101 0 32 8 41 34 37 16 -2 22 -16 32 -63z"/>
<path d="M1546 2404 c-3 -43 -6 -108 -6 -146 l0 -68 51 0 51 0 -4 70 c-2 39
-1 70 2 70 3 0 24 -33 46 -73 l41 -72 49 0 49 1 3 142 3 142 -48 0 -48 0 3
-77 c2 -43 1 -75 -3 -71 -4 4 -26 39 -48 79 -42 71 -42 72 -88 76 l-46 3 -7
-76z"/>
<path d="M1340 2393 c0 -43 3 -109 7 -146 l6 -68 46 7 c25 4 48 8 49 9 2 2 0
64 -4 139 l-7 136 -48 0 -49 0 0 -77z"/>
<path d="M1116 2449 c-32 -5 -61 -11 -64 -13 -4 -5 10 -141 24 -240 l6 -38 67
6 c118 12 121 13 121 53 l0 35 -47 -3 c-37 -3 -48 0 -48 11 0 10 13 16 39 18
37 3 38 4 32 34 -3 17 -6 33 -6 37 0 4 -18 5 -40 3 -32 -3 -40 -1 -40 12 0 11
9 16 29 16 49 0 57 7 53 45 -5 39 -11 41 -126 24z"/>
<path d="M1946 2439 c-5 -22 -24 -181 -29 -239 -2 -24 0 -25 91 -35 51 -6 95
-9 98 -6 2 2 4 19 4 36 0 30 -3 33 -41 38 -46 6 -54 11 -44 27 4 7 21 9 45 5
37 -6 38 -6 42 29 4 38 -4 46 -48 46 -16 0 -24 6 -24 16 0 14 7 16 45 11 43
-6 45 -5 45 17 0 14 2 31 6 39 4 11 -9 16 -58 21 -35 4 -77 9 -95 12 -28 5
-33 3 -37 -17z"/>
<path d="M875 2411 c-26 -6 -30 -10 -27 -36 2 -17 4 -39 5 -50 2 -16 -5 -21
-30 -23 -31 -3 -33 -1 -39 38 -4 22 -10 42 -13 45 -7 4 -80 -10 -87 -17 -2 -2
9 -66 23 -141 l27 -138 31 6 c72 15 72 15 49 96 -3 11 3 19 18 23 41 10 46 7
53 -36 4 -24 9 -46 11 -49 3 -6 82 9 92 17 2 1 -9 63 -24 138 -29 146 -25 141
-89 127z"/>
<path d="M2235 2408 c-2 -7 -13 -62 -25 -123 -12 -60 -23 -118 -26 -127 -5
-17 3 -21 63 -33 30 -6 31 -5 38 34 9 54 21 52 29 -3 7 -44 8 -45 57 -55 27
-6 54 -11 59 -11 5 0 -2 27 -16 60 -29 72 -29 70 -4 70 27 0 55 58 46 95 -12
45 -46 70 -116 84 -36 7 -73 14 -83 17 -9 3 -19 -1 -22 -8z m120 -113 c0 -13
-8 -21 -22 -23 -17 -3 -23 2 -23 16 0 10 3 22 7 26 13 13 38 1 38 -19z"/>
</g>
</svg>
